<svg xmlns="http://www.w3.org/2000/svg" viewBox="0 0 24 24">
  <defs>
    <style>
      .cls-1 {
        fill: #5bb244;
      }

      .cls-2 {
        fill: #fff;
      }
    </style>
  </defs>
  <g id="footer_line" transform="translate(9801 14145)">
    <rect id="矩形_3063" data-name="矩形 3063" class="cls-1" width="24" height="24" rx="12" transform="translate(-9801 -14145)"/>
    <path id="footer_line-2" data-name="footer_line" class="cls-2" d="M7.26,16h0c0-.375,0-1.693,0-2.2C3.19,13.51,0,10.486,0,6.912,0,3.1,3.589,0,8,0s8,3.1,8,6.912a6.569,6.569,0,0,1-2.875,5.307C11.816,13.187,7.83,16,7.261,16Zm3.8-10.7V9h2.325V8.38H11.8V7.39h1.3V6.77H11.8V5.915h1.53V5.3Zm-3.135.924h.025l.374.8L9.392,9h.75V5.3h-.7V6.775c0,.385.047.835.084,1.2l.01.1H9.512l-.37-.8L8.068,5.3H7.313V9h.7V7.515c0-.335-.033-.688-.066-1.029-.009-.091-.017-.177-.024-.26ZM5.663,5.3V9H6.4V5.3Zm-2.885,0V9h2.24V8.38h-1.5V5.3Z" transform="translate(-9797 -14141)"/>
  </g>
</svg>
