<svg xmlns="http://www.w3.org/2000/svg" viewBox="0 0 24 24">
  <defs>
    <style>
      .cls-1 {
        fill: #43a729;
      }

      .cls-2 {
        fill: #fff;
      }
    </style>
  </defs>
  <g id="footer_wechat" transform="translate(9866 14145)">
    <rect id="矩形_1820" data-name="矩形 1820" class="cls-1" width="24" height="24" rx="12" transform="translate(-9866 -14145)"/>
    <path id="footer_wechat-2" data-name="footer_wechat" class="cls-2" d="M-1230.812,1-1233-.259a5.984,5.984,0,0,1-2.271.443c-2.906,0-5.27-2.014-5.27-4.491s2.364-4.491,5.27-4.491,5.27,2.015,5.27,4.491a4.006,4.006,0,0,1-.811,2.386V1Zm-3.272-7.5a.5.5,0,0,0,.5.5.5.5,0,0,0,.5-.5.5.5,0,0,0-.5-.5A.5.5,0,0,0-1234.084-6.5Zm-3.972,0a.5.5,0,0,0,.5.5.5.5,0,0,0,.5-.5.5.5,0,0,0-.5-.5A.5.5,0,0,0-1238.056-6.5Zm-6.951,5.5V-4.577A4.912,4.912,0,0,1-1246-7.5c0-3.032,2.894-5.5,6.453-5.5a6.408,6.408,0,0,1,6.216,4.016,6.458,6.458,0,0,0-1.936-.292c-3.145,0-5.7,2.217-5.7,4.942a4.434,4.434,0,0,0,.65,2.293,7.3,7.3,0,0,1-2.007-.5L-1245.005-1h0Zm6.95-9.5a.5.5,0,0,0,.5.5.5.5,0,0,0,.5-.5.5.5,0,0,0-.5-.5A.5.5,0,0,0-1238.057-10.5Zm-3.97,0a.5.5,0,0,0,.5.5.5.5,0,0,0,.5-.5.5.5,0,0,0-.5-.5A.5.5,0,0,0-1242.028-10.5Z" transform="translate(-8616 -14127)"/>
  </g>
</svg>
