<svg xmlns="http://www.w3.org/2000/svg" viewBox="0 0 16 16">
  <defs>
    <style>
      .cls-1 {
        fill: #4b4b4b;
      }
    </style>
  </defs>
  <g id="form_money" transform="translate(10242 14202)">
    <path id="form_money-2" data-name="form_money" class="cls-1" d="M8,16a8,8,0,1,1,8-8A8.009,8.009,0,0,1,8,16ZM6.356,9.912h0L5.576,11.1a4.489,4.489,0,0,0,2.376,1.044v1.344H9.14V12.1a2.422,2.422,0,0,0,2.111-2.543c0-1.542-1.181-2.115-2.223-2.621C8.264,6.559,7.6,6.238,7.6,5.6c0-.652.382-1,1.1-1a2.146,2.146,0,0,1,1.535.708l.888-1.008A3.3,3.3,0,0,0,9.14,3.216V1.848H7.952V3.239a2.36,2.36,0,0,0-2.04,2.448c0,1.391,1.127,1.969,2.12,2.479.819.421,1.527.784,1.527,1.505,0,.7-.412,1.056-1.224,1.056a3.207,3.207,0,0,1-1.98-.815Z" transform="translate(-10242 -14201.999)"/>
  </g>
</svg>
