<svg xmlns="http://www.w3.org/2000/svg" width="16.813" height="16.814" viewBox="0 0 16.813 16.814">
  <path id="icon_country_r" d="M447.228,807.586a8,8,0,1,1-5.668,2.343,8,8,0,0,1,5.668-2.343Zm-.364,14.795h0v-2.593a6.508,6.508,0,0,0-2.084.429,2.177,2.177,0,0,0-.276.105c.057.114.114.233.179.337a4.423,4.423,0,0,0,1.428,1.642c.254.035.495.066.752.079Zm5.168-11.578h0c-.057-.057-.114-.114-.171-.162a7.489,7.489,0,0,1-.946.6,12.094,12.094,0,0,1,.752,3.994h2.344a6.73,6.73,0,0,0-1.98-4.428Zm-.752-.652h0a6.8,6.8,0,0,0-1.375-.788,8.1,8.1,0,0,1,.534.823c.066.123.131.255.193.377a6.122,6.122,0,0,0,.648-.412Zm-2.925-1.243h0a6.993,6.993,0,0,0-.744-.088v2.6a6.828,6.828,0,0,0,2.076-.429c.092-.035.188-.07.276-.11-.05-.114-.114-.228-.171-.337a4.35,4.35,0,0,0-1.436-1.638Zm-1.49-.088h0a7.167,7.167,0,0,0-.752.088,4.338,4.338,0,0,0-1.428,1.638c-.066.11-.122.223-.179.337.088.04.184.074.276.11a6.881,6.881,0,0,0,2.084.429v-2.6Zm-2.294.543h0a6.851,6.851,0,0,0-1.384.788,6.274,6.274,0,0,0,.657.412c.062-.122.118-.254.184-.377a5.942,5.942,0,0,1,.543-.824Zm-1.967,1.279h0c-.057.05-.114.105-.171.162a6.721,6.721,0,0,0-1.971,4.427h2.33a12.2,12.2,0,0,1,.752-3.994,7.774,7.774,0,0,1-.942-.6Zm-2.142,5.326h0a6.73,6.73,0,0,0,1.971,4.432l.171.162a8.253,8.253,0,0,1,.942-.6,12.154,12.154,0,0,1-.752-3.995Zm2.724,5.089h0a6.815,6.815,0,0,0,1.384.788,6.042,6.042,0,0,1-.543-.832c-.066-.118-.122-.245-.184-.372a5.8,5.8,0,0,0-.657.416Zm4.424,1.323h0c.251-.013.5-.044.744-.079a4.433,4.433,0,0,0,1.436-1.642c.057-.1.122-.223.171-.337a2.176,2.176,0,0,0-.276-.105,6.453,6.453,0,0,0-2.076-.429v2.59Zm2.294-.534h0a6.752,6.752,0,0,0,1.375-.788,5.649,5.649,0,0,0-.648-.416c-.062.127-.127.255-.193.372A8.274,8.274,0,0,1,449.9,821.847Zm1.958-1.283h0l.171-.162a6.738,6.738,0,0,0,1.98-4.432h-2.344a12.053,12.053,0,0,1-.752,3.994,7.94,7.94,0,0,1,.946.6Zm-1.607-9h0c-.1.044-.206.083-.311.122a7.56,7.56,0,0,1-2.334.478v3.07h3.319a11.468,11.468,0,0,0-.675-3.67Zm-3.39.6h0a7.616,7.616,0,0,1-2.343-.478c-.105-.039-.21-.078-.311-.122a11.714,11.714,0,0,0-.675,3.67h3.328Zm0,6.88h0v-3.074h-3.328a11.466,11.466,0,0,0,.683,3.67c.1-.04.2-.079.3-.118a7.62,7.62,0,0,1,2.343-.478Zm.745,0h0a7.565,7.565,0,0,1,2.334.478l.311.118a11.474,11.474,0,0,0,.675-3.67h-3.319v3.074Z" transform="translate(-438.813 -807.186)" fill="#ff6565" stroke="#ff6565" stroke-width="0.8"/>
</svg>
