<svg xmlns="http://www.w3.org/2000/svg" viewBox="0 0 25.999 26">
  <defs>
    <style>
      .cls-1 {
        fill: #949494;
      }
    </style>
  </defs>
  <path id="icon_cart" class="cls-1" d="M17.9,22.749A3.25,3.25,0,1,1,21.147,26,3.25,3.25,0,0,1,17.9,22.749Zm-16.25,0A3.25,3.25,0,1,1,4.9,26,3.25,3.25,0,0,1,1.648,22.749ZM0,17.875v-3.25H19.923L22.243,6.5H3.273V3.25H.023V0H4.9A1.624,1.624,0,0,1,6.523,1.625V3.25H24.4a1.66,1.66,0,0,1,1.562,2.072L22.711,16.7a1.626,1.626,0,0,1-1.563,1.179ZM1.625,13V11.375h6.5V13ZM3.251,9.749V8.124h6.5V9.749Z"/>
</svg>
