<svg xmlns="http://www.w3.org/2000/svg" width="18" height="13.983" viewBox="0 0 18 13.983"><defs><style>.a{fill:#e0ab00;}</style></defs><g transform="translate(-456 -319)"><path class="a" d="M970.89,156.975a.717.717,0,0,1,0-1.435h10.169a.715.715,0,0,1,.719.715.722.722,0,0,1-.719.719Zm2.9-5h0l1.175-4.563a2.446,2.446,0,0,1-.844-.68,2.386,2.386,0,0,1-.476-1.419,2.326,2.326,0,1,1,4.175,1.419,2.413,2.413,0,0,1-.844.68l1.181,4.563,2.554-2.49a2.332,2.332,0,0,1-.385-1.2v-.015a2.368,2.368,0,0,1,.536-1.557,2.327,2.327,0,0,1,3.578,2.976l-.021.025a2.342,2.342,0,0,1-1.094.71,2.305,2.305,0,0,1-.892.092l-.956,4a.424.424,0,0,1-.421.331H970.89a.434.434,0,0,1-.42-.366l-.953-3.97a2.323,2.323,0,1,1,2.1-2.231,2.25,2.25,0,0,1-.385,1.2Z" transform="translate(-510.976 176.008)"/></g></svg>