<svg xmlns="http://www.w3.org/2000/svg" viewBox="0 0 20 20">
  <defs>
    <style>
      .cls-1 {
        fill: #fff;
      }

      .cls-2 {
        fill: none;
      }
    </style>
  </defs>
  <g id="icon_line_w" transform="translate(9558 14143)">
    <path id="路径_21254" data-name="路径 21254" class="cls-1" d="M176.991,1266.127c-.353-2.034-3.34-6.474-9.94-6.433-6.7.042-9.878,4.5-9.9,8.023,0,0-.353,3.636,4.067,6.337a9.949,9.949,0,0,0,3.86,1.39s1.6.062,1.37,1.244a4.213,4.213,0,0,1-.187.933s-.187.539.125.726.975-.249.975-.249a34.415,34.415,0,0,0,7.055-5C177.323,1270.261,177.343,1268.16,176.991,1266.127Zm-13.685,4.139h-2.1c-.539,0-.461-.666-.461-.666v-3.744a.457.457,0,0,1,.492-.512.512.512,0,0,1,.552.491v3.438h1.329c.062,0,.614-.041.614.44a.539.539,0,0,1-.428.561Zm1.985-.387a.428.428,0,0,1-.428.428h-.207a.428.428,0,0,1-.428-.428v-4.106a.428.428,0,0,1,.428-.428h.207a.428.428,0,0,1,.428.428Zm4.788-.125a.527.527,0,0,1-.276.46c-.276.123-.532.052-.88-.419s-1.832-2.435-1.832-2.435v2.435a.526.526,0,0,1-.552.5.431.431,0,0,1-.492-.461v-4.011a.5.5,0,0,1,.471-.481c.4-.02.7.46.7.46l1.83,2.446v-2.241s-.02-.645.492-.645.539.6.539.7Zm3.172.539h-1.821c-.665,0-.665-.717-.665-.717v-3.543a.617.617,0,0,1,.706-.686h1.556c.163,0,.766-.051.766.481s-.591.5-.591.5h-1.414v.982h1.378s.61-.012.61.5a.487.487,0,0,1-.539.527h-1.422v.921h1.269c.123,0,.737-.041.737.461a.528.528,0,0,1-.572.572Z" transform="translate(-9715.146 -15402.693)"/>
    <g id="_20_20" data-name="20*20" transform="translate(-11071 -16933)">
      <rect id="矩形_1609" data-name="矩形 1609" class="cls-2" width="20" height="20" transform="translate(1513 2790)"/>
    </g>
  </g>
</svg>
