<svg xmlns="http://www.w3.org/2000/svg" viewBox="0 0 20 19.999">
  <defs>
    <style>
      .cls-1 {
        fill: #29da23;
        opacity: 0.87;
      }
    </style>
  </defs>
  <g id="icon_line" transform="translate(9671 14143)">
    <path id="icon_line-2" data-name="icon_line" class="cls-1" d="M9.076,20h0c0-.469,0-2.116,0-2.755A10.444,10.444,0,0,1,2.65,14.509,8.039,8.039,0,0,1,0,8.64C0,3.876,4.486,0,10,0S20,3.876,20,8.64a8.209,8.209,0,0,1-3.593,6.633C14.771,16.483,9.79,20,9.076,20ZM13.169,6.31v4.44h2.79v-.743h-1.9V8.818h1.56V8.074h-1.56V7.048h1.836V6.31ZM9.407,7.42h.031l.45.954,1.283,2.376h.9V6.31h-.84V8.08c0,.473.058,1.023.105,1.466l.009.088h-.031l-.444-.959L9.581,6.31H8.675v4.44h.84V8.968c0-.4-.04-.828-.079-1.239-.01-.106-.02-.209-.029-.308ZM6.7,6.31v4.44h.888V6.31Zm-3.462,0v4.44H5.921v-.743h-1.8V6.31Z" transform="translate(-9671 -14143)"/>
  </g>
</svg>
