<svg xmlns="http://www.w3.org/2000/svg" viewBox="0 0 16 16">
  <defs>
    <style>
      .cls-1 {
        fill: none;
      }

      .cls-2 {
        fill: #fff;
      }
    </style>
  </defs>
  <g id="shop_phone_w" transform="translate(10037 14080)">
    <g id="_16_16" data-name="16*16" transform="translate(-6345 -10402)">
      <rect id="矩形_3061" data-name="矩形 3061" class="cls-1" width="16" height="16" transform="translate(-3692 -3678)"/>
    </g>
    <path id="路径_28648" data-name="路径 28648" class="cls-2" d="M3.672,21.5l2.355,3.041.038.05a1.607,1.607,0,0,1,.233.481,1.423,1.423,0,0,1,.034.607,1.63,1.63,0,0,1-.2.564l-.026.035a1.516,1.516,0,0,1-.371.41l-.05.023-1.143.835a.98.98,0,0,0,.161.979,14.761,14.761,0,0,0,1.686,2.027A15.816,15.816,0,0,0,8.4,32.236a.986.986,0,0,0,.989.15l.854-1.183h0a1.455,1.455,0,0,1,1-.6l.03,0a1.421,1.421,0,0,1,.572.039l.035.01a1.446,1.446,0,0,1,.5.257v0l3.039,2.367.05.035a1.5,1.5,0,0,1,.363.458v0A1.58,1.58,0,0,1,16,34.38a1.526,1.526,0,0,1-.113.637H15.9a1.528,1.528,0,0,1-.381.529,4.3,4.3,0,0,1-.723.55l-.031.018a5.166,5.166,0,0,1-1,.446,8.121,8.121,0,0,1-5.16-.115,12.924,12.924,0,0,1-4.96-3.152A12.883,12.883,0,0,1,.485,28.321a8.108,8.108,0,0,1-.114-5.163,4.942,4.942,0,0,1,.47-1.022v-.009h0A5.153,5.153,0,0,1,1.38,21.4a1.716,1.716,0,0,1,.534-.371l.055-.013a1.519,1.519,0,0,1,.583-.093,1.608,1.608,0,0,1,.624.161l.035.028.462.384Zm1.385,3.8h0L2.7,22.259a.2.2,0,0,0-.078-.071l-.01,0a.363.363,0,0,0-.113-.03c-.05,0-.075.008-.105.008l-.017.01a.228.228,0,0,0-.1.07,2.687,2.687,0,0,0-.392.522h0a4.192,4.192,0,0,0-.359.778,6.961,6.961,0,0,0,.114,4.394,11.744,11.744,0,0,0,2.864,4.483,11.718,11.718,0,0,0,4.48,2.865,6.946,6.946,0,0,0,4.391.114,4.258,4.258,0,0,0,.75-.332l.028-.027a3.075,3.075,0,0,0,.523-.385.436.436,0,0,0,.071-.1h0v0a.227.227,0,0,0,.018-.115.2.2,0,0,0-.027-.113h0a.133.133,0,0,0-.056-.075l-.022-.014-3.038-2.361h0a.193.193,0,0,0-.083-.05h-.009a.446.446,0,0,0-.1-.008h0a.279.279,0,0,0-.106.034h0a.281.281,0,0,0-.082.079h0L10.313,33.2a.787.787,0,0,1-.2.2,2.125,2.125,0,0,1-2.41-.161,15.567,15.567,0,0,1-2.178-1.826A14.956,14.956,0,0,1,3.7,29.224a2.106,2.106,0,0,1-.154-2.407.6.6,0,0,1,.166-.183l1.253-.917.05-.031a.273.273,0,0,0,.061-.066l.013-.018a.234.234,0,0,0,.039-.1.441.441,0,0,0-.009-.114.136.136,0,0,0-.039-.071L5.058,25.3ZM3.672,21.507Zm0-.009Z" transform="translate(-10037.005 -14100.925)"/>
  </g>
</svg>
