<svg xmlns="http://www.w3.org/2000/svg" viewBox="0 0 16 16">
  <defs>
    <style>
      .cls-1 {
        fill: none;
      }

      .cls-2 {
        fill: #4b4b4b;
      }
    </style>
  </defs>
  <g id="shop_map" transform="translate(9980 14142)">
    <g id="_16_16" data-name="16*16" transform="translate(-6288 -10464)">
      <rect id="矩形_3061" data-name="矩形 3061" class="cls-1" width="16" height="16" transform="translate(-3692 -3678)"/>
    </g>
    <path id="路径_28649" data-name="路径 28649" class="cls-2" d="M13.949,738.11a7.031,7.031,0,1,0-7.655,11.475l2.242,2.272v.009l.008.018a.609.609,0,0,0,.87-.018l2.241-2.28a7.039,7.039,0,0,0,2.294-11.475Zm-.179,8.245h0a5.8,5.8,0,0,1-2.683,2.132.608.608,0,0,0-.218.154l-1.888,1.922-1.9-1.922a.572.572,0,0,0-.236-.157,5.8,5.8,0,1,1,6.921-2.128Zm-1.941-6.143h0a2.214,2.214,0,1,0,.027.011l-.026-.012Zm-.52,5.2h0a3.306,3.306,0,1,1,0-4.68l.021.018a3.313,3.313,0,0,1-.021,4.662Z" transform="translate(-9980.953 -14878.058)"/>
  </g>
</svg>
