<svg xmlns="http://www.w3.org/2000/svg" width="16" height="16" viewBox="0 0 16 16">
  <g id="shop_mail" transform="translate(47 61)">
    <g id="_16_16" data-name="16*16" transform="translate(-340 -434)">
      <rect id="矩形_3113" data-name="矩形 3113" width="16" height="16" transform="translate(293 373)" fill="none"/>
    </g>
    <path id="路径_51225" data-name="路径 51225" d="M79.063,526.111a.75.75,0,0,0-.75-.75h-14.5a.75.75,0,0,0-.75.75v10a.75.75,0,0,0,.75.75h14.5a.75.75,0,0,0,.75-.75Zm-10.732,5.565,1.982,1.9a.75.75,0,0,0,1.06-.039l1.981-1.845,3.529,3.664H64.8Zm-3.77,3.057v-7.367l3.683,3.684Zm9.32-3.684,3.684-3.684v7.367Zm3.684-4.189v-.437l-6.5,6.626-6.5-6.626v.438Z" transform="translate(-110.063 -584.361)" fill="#4b4b4b"/>
  </g>
</svg>
