<svg xmlns="http://www.w3.org/2000/svg" viewBox="0 0 109.889 70.643">
  <defs>
    <style>
      .cls-1 {
        fill: #4b4b4b;
        opacity: 0.1;
      }
    </style>
  </defs>
  <g id="btn_update" transform="translate(9439 14003.223)">
    <path id="路径_344" data-name="路径 344" class="cls-1" d="M89.8,29.729c0-.294.049-.589.049-.883A28.608,28.608,0,0,0,61.469,0,28.292,28.292,0,0,0,35.886,16.434a14.531,14.531,0,0,0-6.574-1.594A14.717,14.717,0,0,0,14.889,27.227a22.351,22.351,0,0,0,7.064,43.416H47.1V51.02H35.272L54.944,30.489,74.617,51H62.794V70.618H89.849A20.448,20.448,0,0,0,89.8,29.729Z" transform="translate(-9439 -14003.223)"/>
  </g>
</svg>
