<svg xmlns="http://www.w3.org/2000/svg" width="16" height="16" viewBox="0 0 16 16">
  <g id="icon_password_r" transform="translate(10415 14142)">
    <path id="icon_password" d="M7,8a2,2,0,1,1-2,2A2.006,2.006,0,0,1,7,8ZM7,2A2.006,2.006,0,0,0,5,4H9A2.006,2.006,0,0,0,7,2Zm5,14H2a2.006,2.006,0,0,1-2-2V6A2.006,2.006,0,0,1,2,4H3a4,4,0,0,1,8,0h1a2.006,2.006,0,0,1,2,2v8A2.006,2.006,0,0,1,12,16Z" transform="translate(-10414 -14142)" fill="#ff6565" fill-rule="evenodd"/>
    <rect id="矩形_3922" data-name="矩形 3922" width="16" height="16" transform="translate(-10415 -14142)" fill="none"/>
  </g>
</svg>
