<svg xmlns="http://www.w3.org/2000/svg" width="16" height="16" viewBox="0 0 16 16">
  <g id="icon_map_r" transform="translate(10586 14202)">
    <rect id="矩形_305" data-name="矩形 305" width="16" height="16" transform="translate(-10586 -14202)" fill="none"/>
    <path id="路径_114" data-name="路径 114" d="M6.58,9.47A2.786,2.786,0,0,0,9.371,6.679,2.872,2.872,0,0,0,6.58,3.788,2.786,2.786,0,0,0,3.788,6.579,2.942,2.942,0,0,0,6.58,9.47ZM1.894,1.894a6.626,6.626,0,0,1,9.371,9.371L6.58,15.95,1.894,11.265A6.807,6.807,0,0,1,1.894,1.894Z" transform="translate(-10585.025 -14201.95)" fill="#ff6565" fill-rule="evenodd"/>
  </g>
</svg>
