<svg xmlns="http://www.w3.org/2000/svg" width="16" height="16" viewBox="0 0 16 16">
  <g id="icon_id_r" transform="translate(10372 14202)">
    <rect id="矩形_117" data-name="矩形 117" width="16" height="16" transform="translate(-10372 -14202)" fill="none"/>
    <path id="路径_48580" data-name="路径 48580" d="M1167.283,982.178h-3.6a.594.594,0,0,0-.566.6v3.842a.6.6,0,0,0,.565.612h3.6a.6.6,0,0,0,.567-.612v-3.839a.6.6,0,0,0-.567-.6Zm-.565,3.849h-2.484v-2.646h2.484Zm-1.407,2.229h0a.551.551,0,0,0-.4.18.627.627,0,0,0-.163.432v1.11a.567.567,0,1,0,1.131,0v-1.108a.592.592,0,0,0-.566-.612Zm-1.571,0h0a.587.587,0,0,0-.553.612v1.109a.56.56,0,1,0,1.118,0v-1.108a.626.626,0,0,0-.163-.432.549.549,0,0,0-.4-.18Zm9.089,0h0a.546.546,0,0,0-.4.181.623.623,0,0,0-.16.431v1.11a.561.561,0,1,0,1.119,0v-1.108a.622.622,0,0,0-.16-.432.544.544,0,0,0-.4-.181Zm1.564,0h0a.546.546,0,0,0-.4.183.623.623,0,0,0-.157.429v1.11a.611.611,0,0,0,.159.422.535.535,0,0,0,.393.176.541.541,0,0,0,.4-.173.618.618,0,0,0,.166-.425v-1.108a.626.626,0,0,0-.163-.432.548.548,0,0,0-.4-.18Zm1.579,0h0a.545.545,0,0,0-.4.179.624.624,0,0,0-.162.433v1.11a.56.56,0,1,0,1.118,0v-1.108a.623.623,0,0,0-.157-.429.544.544,0,0,0-.4-.183Zm1.59,2.546a1.539,1.539,0,0,1-.993.46h-13.5c-.6,0-.793-.05-1.058-.448a1.322,1.322,0,0,1-.217-.81v-9.27a2.035,2.035,0,0,1,.314-1.127,1.385,1.385,0,0,1,.972-.339h13.307a1.215,1.215,0,0,1,.983.339c.348.414.41.329.41,1.319v8.7A2.01,2.01,0,0,1,1177.562,990.8Zm-6.917-2.546h0a.551.551,0,0,0-.407.178.628.628,0,0,0-.166.434v1.11a.62.62,0,0,0,.169.427.542.542,0,0,0,.4.17.536.536,0,0,0,.393-.176.613.613,0,0,0,.159-.422v-1.108a.622.622,0,0,0-.157-.429.544.544,0,0,0-.4-.183Zm-1.571,0h0a.592.592,0,0,0-.566.612v1.11a.583.583,0,0,0,.566.6.54.54,0,0,0,.4-.175.618.618,0,0,0,.162-.423v-1.108a.627.627,0,0,0-.16-.43.548.548,0,0,0-.4-.182Zm-1.571,0h0a.55.55,0,0,0-.4.18.629.629,0,0,0-.163.432v1.11a.619.619,0,0,0,.166.425.542.542,0,0,0,.4.173.531.531,0,0,0,.4-.172.607.607,0,0,0,.161-.426v-1.108a.619.619,0,0,0-.158-.433.541.541,0,0,0-.4-.179Z" transform="translate(-11533.792 -15179.26)" fill="#ff6565"/>
  </g>
</svg>
